<svg version="1.1" id="Layer_1" xmlns="http://www.w3.org/2000/svg" xmlns:xlink="http://www.w3.org/1999/xlink" x="0px" y="0px"
	 width="100%" viewBox="0 0 307 255" enable-background="new 0 0 307 255" xml:space="preserve">
<path fill="#000000" opacity="1.000000" stroke="none" 
	d="
M186.000000,256.000000 
	C124.000008,256.000000 62.500015,256.000000 1.000016,256.000000 
	C1.000011,171.000015 1.000011,86.000038 1.000005,1.000039 
	C103.333305,1.000026 205.666611,1.000026 307.999939,1.000013 
	C307.999939,85.999962 307.999939,170.999924 307.999969,255.999939 
	C267.500000,256.000000 227.000000,256.000000 186.000000,256.000000 
M31.976637,106.959724 
	C31.976637,106.959724 31.922026,106.878006 31.217230,106.927002 
	C28.426992,109.935516 25.636753,112.944031 22.421347,116.110687 
	C22.151892,116.291107 21.997608,116.542274 21.352732,117.101006 
	C21.186155,117.711739 21.019579,118.322479 20.203876,119.246819 
	C12.397243,131.136856 16.775166,151.004211 29.214493,159.731995 
	C35.424706,164.089264 41.352482,169.124756 48.126278,172.340439 
	C59.115616,177.557358 70.722801,181.463669 82.004944,186.080185 
	C84.406761,187.062988 86.533371,188.718353 89.128975,190.669571 
	C98.858429,204.629822 112.097115,214.788605 125.900909,224.256531 
	C131.220337,227.905090 137.275925,230.499725 142.499924,234.263306 
	C149.607544,239.383911 155.910721,238.767624 163.290176,234.478546 
	C176.063339,227.054565 188.810669,219.627502 199.709396,209.609924 
	C205.916290,203.904861 211.275864,197.277908 217.723038,190.729828 
	C231.557983,186.846817 245.855453,184.168289 258.414856,176.772949 
	C262.724060,174.235535 266.225586,170.326523 270.536682,167.025360 
	C270.536682,167.025360 270.975555,167.068283 271.295380,167.605392 
	C274.196808,165.256805 277.414337,163.204376 279.942596,160.506119 
	C288.827423,151.023895 292.617615,139.048920 289.537445,126.997757 
	C286.103760,113.563637 276.038239,104.199112 262.727753,98.362007 
	C262.527313,100.013351 262.510376,101.838676 263.414581,102.743729 
	C265.451263,104.782295 267.863251,106.484695 270.266937,108.110298 
	C276.652283,112.428688 280.859467,122.001801 278.920685,129.321899 
	C276.471375,138.569611 268.838959,143.523819 261.314026,147.772064 
	C252.940903,152.499130 243.822525,155.906143 235.034180,159.220505 
	C235.227554,157.716949 235.420929,156.213409 236.077744,154.188217 
	C245.146927,144.518677 246.358627,131.620880 249.849915,119.757988 
	C252.392853,111.117493 253.941483,102.134354 255.283340,93.206268 
	C256.353210,86.087715 256.460144,78.822853 256.930817,71.618782 
	C256.968903,71.035736 256.393768,70.436562 256.310760,69.817123 
	C256.073914,68.049728 255.496506,66.173286 255.848785,64.508095 
	C257.474335,56.824127 256.000824,50.620998 250.860336,48.530190 
	C238.119598,43.348106 225.064926,38.929775 212.374802,33.633320 
	C193.744415,25.857594 173.768250,27.741768 154.436203,25.322029 
	C144.524857,24.081450 134.165558,26.419521 123.267296,26.984047 
	C122.170883,27.312862 121.074478,27.641676 119.463181,28.062893 
	C119.297188,28.116285 119.131187,28.169676 118.113571,28.052879 
	C110.388031,29.672188 102.662498,31.291496 94.157555,33.024857 
	C92.322151,33.599712 90.433914,34.045307 88.659920,34.770397 
	C77.174477,39.464870 65.661674,44.100922 54.298878,49.078125 
	C52.494186,49.868626 50.235203,52.240768 50.171150,53.955811 
	C49.792114,64.104439 49.655674,74.289589 50.088322,84.434700 
	C50.754017,100.044449 53.298233,115.466492 58.144688,130.295242 
	C61.255367,139.813019 65.945786,148.814514 69.987122,158.778244 
	C70.940132,160.828674 71.893143,162.879105 72.031593,164.953247 
	C59.130089,162.361053 47.040112,157.699097 36.478313,149.795944 
	C31.729094,146.242203 27.122833,141.789734 29.085329,134.890015 
	C30.158285,131.117722 32.378807,127.671837 34.053413,124.028290 
	C34.053413,124.028290 34.049248,124.084938 34.671940,123.823204 
	C37.513237,121.349258 40.474339,118.996010 43.142574,116.347702 
	C44.377518,115.121994 45.818615,113.317513 45.811630,111.781586 
	C45.794064,107.919746 45.005627,104.061401 44.367294,98.921783 
	C41.244930,100.776131 38.589642,102.353081 35.475948,104.093933 
	C35.179905,104.279442 35.009636,104.545464 34.312244,104.963661 
	C33.504585,105.614014 32.696926,106.264366 31.976637,106.959724 
z"/>
<path fill="#7BC1FD" opacity="1.000000" stroke="none" 
	d="
M69.928078,158.047424 
	C65.945786,148.814514 61.255367,139.813019 58.144688,130.295242 
	C53.298233,115.466492 50.754017,100.044449 50.088322,84.434700 
	C49.655674,74.289589 49.792114,64.104439 50.171150,53.955811 
	C50.235203,52.240768 52.494186,49.868626 54.298878,49.078125 
	C65.661674,44.100922 77.174477,39.464870 88.659920,34.770397 
	C90.433914,34.045307 92.322151,33.599712 94.815643,33.182858 
	C103.304214,31.634930 111.134705,29.928999 118.965195,28.223068 
	C119.131187,28.169676 119.297188,28.116285 120.074249,28.022205 
	C121.793114,27.701107 122.900909,27.420696 124.008713,27.140285 
	C134.165558,26.419521 144.524857,24.081450 154.436203,25.322029 
	C173.768250,27.741768 193.744415,25.857594 212.374802,33.633320 
	C225.064926,38.929775 238.119598,43.348106 250.860336,48.530190 
	C256.000824,50.620998 257.474335,56.824127 255.848785,64.508095 
	C255.496506,66.173286 256.073914,68.049728 256.310760,69.817123 
	C256.393768,70.436562 256.968903,71.035736 256.930817,71.618782 
	C256.460144,78.822853 256.353210,86.087715 255.283340,93.206268 
	C253.941483,102.134354 252.392853,111.117493 249.849915,119.757988 
	C246.358627,131.620880 245.146927,144.518677 235.485672,154.514679 
	C233.256058,155.165024 231.618530,155.488907 229.959595,155.404236 
	C229.688934,143.709595 229.528870,132.420090 229.096191,121.141029 
	C229.029739,119.408806 227.707336,117.724777 226.734100,115.859177 
	C225.983078,115.180481 225.463760,114.661064 224.722763,113.813614 
	C222.484070,112.943161 220.471146,111.947853 218.449448,111.929756 
	C201.852371,111.781113 185.253510,111.775848 168.655670,111.845055 
	C166.765640,111.852928 164.878616,112.588028 162.680878,113.098373 
	C161.606033,114.480614 160.840530,115.750412 159.970795,117.385826 
	C159.737045,118.499489 159.607529,119.247528 159.167206,120.198631 
	C158.571411,121.984619 158.068466,123.563698 158.040375,125.151169 
	C157.937744,130.951752 158.104477,136.758224 157.942993,142.556152 
	C157.861130,145.495377 157.856613,148.787979 153.266144,149.230606 
	C151.593536,149.185349 150.306732,149.111191 148.688004,148.785858 
	C142.893951,148.708923 137.431808,148.883148 131.668396,149.158417 
	C130.843613,149.836456 130.320114,150.413437 129.485748,151.156296 
	C127.793243,151.547531 126.411629,151.772873 125.022598,151.559219 
	C124.696083,145.749603 124.376968,140.378967 123.985489,134.574463 
	C123.958382,132.092499 124.003654,130.044434 124.264313,127.729919 
	C124.331924,125.975334 124.184158,124.487183 123.963989,122.535355 
	C123.949196,115.710861 124.006805,109.350037 124.296799,102.651390 
	C124.755356,98.404320 124.548203,94.408195 125.310432,90.606430 
	C126.420853,85.067970 125.903999,83.688568 120.174675,82.166306 
	C118.912628,81.664452 117.957283,81.229744 116.870857,80.480499 
	C114.160248,80.356651 111.580719,80.547340 108.553154,80.807404 
	C105.382973,80.821350 102.660843,80.765930 99.838898,80.628624 
	C99.476738,80.443703 99.249146,80.503075 98.602005,80.787781 
	C95.098892,80.799805 92.050102,80.748932 88.913086,80.443726 
	C87.576889,80.354492 86.328926,80.519592 84.735382,80.774223 
	C82.730072,81.612518 81.070320,82.361282 79.139389,83.215088 
	C78.590912,83.585045 78.313622,83.849953 78.003662,84.420906 
	C77.804062,85.511612 77.637131,86.296272 77.357750,87.064842 
	C77.245308,87.048752 77.022675,87.003624 76.772270,87.334312 
	C76.348160,88.966690 76.033127,90.267143 76.021828,91.570244 
	C75.831795,113.481987 75.668800,135.394012 75.579651,157.306305 
	C75.577354,157.871307 76.475700,158.439957 77.045685,159.327850 
	C77.127586,160.092285 77.117828,160.535751 76.787758,161.114777 
	C75.283623,160.891068 74.032341,160.669830 72.935074,160.133499 
	C71.851692,159.603943 70.924042,158.755814 69.928078,158.047424 
M112.344536,44.327492 
	C111.924652,44.403614 111.504761,44.479733 110.401428,44.332993 
	C106.866646,45.981159 102.362671,47.014008 102.113785,51.779430 
	C101.726151,59.201710 102.011238,66.659126 102.011238,74.251358 
	C104.391899,74.251358 106.120094,74.251358 107.918335,74.251358 
	C107.918335,67.609619 107.918335,61.304836 108.081703,54.305611 
	C108.735878,53.099003 109.390053,51.892395 110.972763,50.758545 
	C138.638397,50.709358 166.304047,50.660168 194.659302,50.847275 
	C195.357254,51.056423 196.055206,51.265575 196.898819,52.337330 
	C197.008606,68.240860 197.067688,84.145142 197.304749,100.046768 
	C197.329086,101.679642 198.417648,103.296646 199.761475,105.014015 
	C200.512268,104.960869 201.263046,104.907715 202.540237,104.978264 
	C202.719955,104.991417 202.899673,105.004570 203.794968,104.700195 
	C204.179443,104.006378 204.896927,103.313858 204.899643,102.618553 
	C204.966248,85.510277 205.013565,68.401131 204.838531,51.294456 
	C204.826431,50.110973 203.057266,48.945469 201.683334,47.558079 
	C201.448547,47.344509 201.190186,47.164848 200.580215,46.519302 
	C200.066772,46.222469 199.553314,45.925636 198.512192,45.170654 
	C197.380142,44.987328 196.248108,44.804005 194.768295,44.389164 
	C194.495224,44.316490 194.245392,44.195770 193.383133,43.535976 
	C190.239456,43.727875 187.095779,43.919773 183.120239,44.314098 
	C181.416779,44.246113 179.713318,44.178123 177.367447,43.577400 
	C164.466232,43.440453 151.565094,43.291172 138.663544,43.207569 
	C138.093887,43.203880 137.520340,43.799713 136.078110,44.324574 
	C133.697845,44.438469 131.317596,44.552364 128.988434,44.358749 
	C128.988434,44.358749 128.998413,44.047176 128.345657,43.535908 
	C123.212021,43.724510 118.078392,43.913116 112.344536,44.327492 
M197.099930,43.639423 
	C197.099930,43.639423 197.014496,43.354431 197.014496,43.354431 
	C197.014496,43.354431 196.921204,43.637295 197.099930,43.639423 
z"/>
<path fill="#7CC2FA" opacity="1.000000" stroke="none" 
	d="
M217.016983,191.066071 
	C211.275864,197.277908 205.916290,203.904861 199.709396,209.609924 
	C188.810669,219.627502 176.063339,227.054565 163.290176,234.478546 
	C155.910721,238.767624 149.607544,239.383911 142.499924,234.263306 
	C137.275925,230.499725 131.220337,227.905090 125.900909,224.256531 
	C112.097115,214.788605 98.858429,204.629822 88.957756,189.999115 
	C88.870247,188.594284 88.953949,187.859924 89.385620,187.119232 
	C90.662003,187.134659 91.590424,187.156387 92.682068,187.451599 
	C93.562592,188.037781 94.279884,188.350510 95.401939,188.768982 
	C97.193474,189.002243 98.580238,189.129745 100.220573,189.474579 
	C101.994507,190.017609 103.514877,190.343277 105.445511,190.744507 
	C107.244774,190.869858 108.633759,190.919678 110.287498,191.198059 
	C112.408310,191.784393 114.264381,192.142166 116.554985,192.603333 
	C119.977547,192.825974 122.965576,192.945236 126.275612,193.278015 
	C130.081711,193.887909 133.565781,194.284286 137.507355,194.770447 
	C142.436295,194.925461 146.909882,195.110306 151.378815,195.031754 
	C161.626923,194.851654 171.872772,194.543076 182.462860,194.439972 
	C184.436905,194.593491 186.089432,194.767075 187.694809,194.565399 
	C197.129349,193.380188 206.552887,192.107437 216.238190,190.920593 
	C216.669830,191.006683 216.843414,191.036377 217.016983,191.066071 
z"/>
<path fill="#62C694" opacity="1.000000" stroke="none" 
	d="
M89.037659,187.125549 
	C88.953949,187.859924 88.870247,188.594284 88.786659,189.696259 
	C86.533371,188.718353 84.406761,187.062988 82.004944,186.080185 
	C70.722801,181.463669 59.115616,177.557358 48.126278,172.340439 
	C41.352482,169.124756 35.424706,164.089264 29.214493,159.731995 
	C16.775166,151.004211 12.397243,131.136856 20.773039,118.905106 
	C21.547632,117.996986 21.753063,117.430588 21.958494,116.864189 
	C21.997608,116.542274 22.151892,116.291107 22.991718,116.049881 
	C24.039593,115.988441 24.517096,115.987808 24.982800,116.344025 
	C24.852291,117.951752 24.733585,119.202637 24.592821,120.685959 
	C26.664721,120.114929 28.322264,119.658104 30.023560,119.189217 
	C29.023191,121.823982 28.240440,123.885597 27.181911,126.673546 
	C30.534966,125.412590 32.308395,124.745674 34.081829,124.078751 
	C32.378807,127.671837 30.158285,131.117722 29.085329,134.890015 
	C27.122833,141.789734 31.729094,146.242203 36.478313,149.795944 
	C47.040112,157.699097 59.130089,162.361053 72.654846,165.261047 
	C74.806450,166.053848 76.303070,166.722443 77.868492,166.993011 
	C85.905823,168.382187 93.960846,169.668991 101.700241,171.234497 
	C99.613716,171.578415 97.837593,171.702454 96.059364,171.774673 
	C93.703148,171.870361 91.345291,171.925522 88.632210,172.013947 
	C87.342697,172.853500 86.409103,173.677216 85.475517,174.500916 
	C86.650238,175.333954 87.824966,176.166977 89.004326,177.377075 
	C89.863121,179.613129 90.717278,181.472076 91.652344,183.507111 
	C90.859871,184.603806 89.948769,185.864685 89.037659,187.125549 
z"/>
<path fill="#285476" opacity="1.000000" stroke="none" 
	d="
M229.980988,155.812775 
	C231.618530,155.488907 233.256058,155.165024 235.253952,154.775497 
	C235.420929,156.213409 235.227554,157.716949 234.757446,159.633575 
	C233.973236,160.288101 233.465729,160.529572 232.592346,160.798309 
	C231.508499,160.964050 230.790573,161.102539 229.787476,161.248444 
	C228.992706,161.489777 228.483093,161.723679 227.570374,161.974823 
	C222.476196,163.040161 217.785126,164.088272 212.663879,165.054535 
	C210.491821,165.105942 208.749924,165.239182 206.582397,165.301697 
	C204.429276,165.131821 202.701813,165.032700 200.635712,164.700195 
	C190.207993,164.592545 180.118927,164.718262 169.737778,164.943237 
	C169.254532,165.118301 169.063370,165.194107 168.485687,165.241287 
	C167.069565,165.255768 166.039978,165.298874 164.615356,165.255386 
	C163.145798,165.190308 162.071228,165.211823 160.581818,165.140717 
	C158.471115,164.952576 156.775299,164.857086 154.960327,164.467499 
	C154.271973,163.293976 153.702744,162.414551 153.085846,161.208221 
	C152.537018,158.780807 151.280655,156.377655 155.430115,156.054718 
	C157.146835,155.729034 158.439346,155.319412 160.017212,154.700317 
	C160.536835,143.756210 160.817825,133.022217 160.958603,122.286392 
	C160.981567,120.535156 160.385162,118.775810 160.075027,117.020210 
	C160.840530,115.750412 161.606033,114.480614 162.969666,113.304276 
	C167.698288,113.265411 171.832092,112.955231 175.958679,113.032059 
	C192.288498,113.336090 208.616058,113.761337 224.944458,114.141640 
	C225.463760,114.661064 225.983078,115.180481 226.756042,116.279243 
	C227.244873,120.141975 227.650421,123.423737 227.681976,126.709091 
	C227.763062,135.145111 227.580688,143.584854 227.763641,152.017456 
	C227.791428,153.298004 229.207214,154.548416 229.980988,155.812775 
M165.465729,120.000793 
	C165.465729,120.000793 165.085266,120.091774 164.515839,120.085419 
	C164.361298,130.631088 164.172836,141.176590 164.123962,151.722748 
	C164.120499,152.473846 165.141266,153.229706 166.204865,154.473663 
	C167.135132,154.528503 168.065414,154.583328 169.921860,154.788406 
	C185.407043,154.795044 200.893005,154.721420 216.376862,154.868469 
	C219.955338,154.902435 221.429169,153.940430 221.329163,150.087906 
	C221.091614,140.936096 221.151642,131.771576 221.326569,122.616669 
	C221.392227,119.180542 220.258881,117.936806 216.746094,117.969467 
	C201.095367,118.114983 185.442215,117.996269 169.791367,118.134972 
	C168.555389,118.145912 167.330383,119.396118 166.008926,119.938622 
	C166.008926,119.938622 165.849304,119.924057 165.465729,120.000793 
M225.909286,123.209969 
	C225.410995,122.652023 224.912704,122.094078 224.414398,121.536133 
	C223.945236,122.653450 223.085205,123.765289 223.069443,124.888977 
	C222.954941,133.047119 222.975769,141.207993 223.053818,149.367035 
	C223.064331,150.465805 223.633911,151.559250 223.944611,152.655167 
	C224.621780,152.603882 225.298950,152.552597 225.976120,152.501312 
	C225.976120,143.022064 225.976120,133.542816 225.909286,123.209969 
z"/>
<path fill="#64C896" opacity="1.000000" stroke="none" 
	d="
M227.973480,161.957581 
	C228.483093,161.723679 228.992706,161.489777 230.021606,161.412827 
	C231.346695,161.303543 232.152466,161.037292 232.958237,160.771042 
	C233.465729,160.529572 233.973236,160.288101 234.754669,159.967224 
	C243.822525,155.906143 252.940903,152.499130 261.314026,147.772064 
	C268.838959,143.523819 276.471375,138.569611 278.920685,129.321899 
	C280.859467,122.001801 276.652283,112.428688 270.266937,108.110298 
	C267.863251,106.484695 265.451263,104.782295 263.414581,102.743729 
	C262.510376,101.838676 262.527313,100.013351 262.727753,98.362007 
	C276.038239,104.199112 286.103760,113.563637 289.537445,126.997757 
	C292.617615,139.048920 288.827423,151.023895 279.942596,160.506119 
	C277.414337,163.204376 274.196808,165.256805 271.128296,167.024689 
	C270.585327,165.867081 270.209442,165.290192 269.833588,164.713303 
	C269.921112,165.490250 270.008606,166.267197 270.096130,167.044144 
	C266.225586,170.326523 262.724060,174.235535 258.414856,176.772949 
	C245.855453,184.168289 231.557983,186.846817 217.370010,190.897949 
	C216.843414,191.036377 216.669830,191.006683 216.206512,190.550537 
	C214.869797,189.418274 213.852417,188.662537 212.767975,188.019928 
	C211.542816,187.293930 210.257401,186.669601 209.321854,185.760345 
	C216.477249,183.191833 223.350342,188.825882 230.351990,185.104462 
	C236.063995,182.068512 242.227997,179.883209 248.187515,177.311310 
	C248.326279,177.251404 248.486221,177.095947 248.519501,176.957062 
	C250.047836,170.580399 255.167816,171.243622 259.954102,170.884872 
	C261.564148,170.764206 263.695831,169.922272 264.527222,168.692261 
	C266.259613,166.129288 267.283813,163.087570 268.523224,160.406555 
	C270.285950,160.872696 271.322540,161.146805 272.359100,161.420914 
	C272.700928,161.103271 273.042725,160.785629 273.384521,160.467972 
	C271.862091,158.229599 270.339630,155.991226 269.599121,154.902481 
	C270.496216,153.449066 271.250549,152.226974 272.407928,151.003082 
	C275.780029,151.247147 278.127472,150.389175 278.546997,147.110092 
	C278.621490,146.527649 277.228912,145.757507 276.513763,145.074051 
	C275.027710,146.719803 273.526276,148.352280 272.076050,150.029022 
	C271.905182,150.226593 272.015259,150.667191 271.597290,150.999954 
	C267.159363,151.817307 262.245392,150.290970 259.765900,155.348190 
	C259.561951,155.764221 258.566772,155.796112 257.936768,155.998856 
	C253.927750,157.288971 249.946594,158.678223 245.895706,159.820099 
	C244.048386,160.340851 242.062988,160.371780 239.929840,160.652542 
	C239.575775,161.741333 239.160217,163.019226 238.767731,164.226135 
	C240.636765,164.338104 242.126846,164.427383 244.038071,164.541885 
	C240.599289,169.636581 238.454315,169.781570 233.882797,166.678665 
	C231.893127,165.328156 229.304825,164.859573 227.111954,163.736343 
	C227.481522,162.974014 227.727509,162.465805 227.973480,161.957581 
M252.780075,176.400970 
	C252.985519,176.231018 253.190948,176.061066 253.396393,175.891129 
	C253.294006,175.781097 253.191620,175.671066 253.089218,175.561050 
	C252.906326,175.755615 252.723419,175.950180 252.780075,176.400970 
z"/>
<path fill="#80C1F3" opacity="1.000000" stroke="none" 
	d="
M159.731873,154.909805 
	C158.439346,155.319412 157.146835,155.729034 155.343094,155.757599 
	C150.326553,154.485565 148.867569,155.920486 149.910614,160.216675 
	C151.023331,164.799789 149.538986,166.948196 144.958725,166.960770 
	C140.356445,166.973404 135.751404,166.565872 131.151245,166.625305 
	C125.650520,166.696365 120.124641,166.819122 114.672455,167.456635 
	C112.988174,167.653564 111.509201,169.606445 109.961334,170.856003 
	C109.986435,170.956650 110.002975,171.163437 109.592133,171.092209 
	C107.795708,171.034821 106.410126,171.048645 104.649292,171.017593 
	C103.519264,170.978989 102.764481,170.985260 102.009697,170.991547 
	C93.960846,169.668991 85.905823,168.382187 77.868492,166.993011 
	C76.303070,166.722443 74.806450,166.053848 73.062119,165.249207 
	C71.893143,162.879105 70.940132,160.828674 69.957596,158.412842 
	C70.924042,158.755814 71.851692,159.603943 72.935074,160.133499 
	C74.032341,160.669830 75.283623,160.891068 76.976822,161.305145 
	C77.860764,161.736069 78.235321,162.112167 78.633804,162.475708 
	C78.657730,162.463165 78.695358,162.424866 78.884506,162.773376 
	C85.080948,163.468109 91.088242,163.814346 97.504333,164.252441 
	C99.581490,164.282227 101.249855,164.220169 103.385269,164.233307 
	C108.225578,164.174866 112.598831,164.041214 117.305954,163.907990 
	C118.759712,162.939346 119.879608,161.970276 121.275772,161.079590 
	C125.797737,159.276596 124.858604,155.426575 125.030006,151.998215 
	C126.411629,151.772873 127.793243,151.547531 129.557251,151.557526 
	C129.576859,154.412537 129.214066,157.032181 128.634064,159.935089 
	C126.733345,163.929794 126.733345,163.929794 129.528381,164.499878 
	C132.282654,164.543137 134.610352,164.492523 137.376892,164.553802 
	C140.837067,164.099808 143.858398,163.533890 146.869965,162.582184 
	C145.980408,158.444458 145.058609,154.678436 150.344147,152.882660 
	C151.689301,151.666351 152.670609,150.434021 153.651932,149.201691 
	C157.856613,148.787979 157.861130,145.495377 157.942993,142.556152 
	C158.104477,136.758224 157.937744,130.951752 158.040375,125.151169 
	C158.068466,123.563698 158.571411,121.984619 159.249390,120.660721 
	C159.701920,127.358360 159.789764,133.796875 159.811813,140.235611 
	C159.828568,145.126862 159.761597,150.018402 159.731873,154.909805 
z"/>
<path fill="#5ECC95" opacity="1.000000" stroke="none" 
	d="
M34.067619,124.053520 
	C32.308395,124.745674 30.534966,125.412590 27.181911,126.673546 
	C28.240440,123.885597 29.023191,121.823982 30.023560,119.189217 
	C28.322264,119.658104 26.664721,120.114929 24.592821,120.685959 
	C24.733585,119.202637 24.852291,117.951752 25.059059,116.045563 
	C25.763557,114.925346 26.379995,114.460442 27.231853,114.160751 
	C27.980564,113.219856 28.493856,112.113739 29.291393,110.834854 
	C30.357767,109.400734 31.139896,108.139366 31.922026,106.878006 
	C31.922026,106.878006 31.976637,106.959724 32.287750,106.943573 
	C33.387619,106.248947 34.176380,105.570465 34.965141,104.891983 
	C35.009636,104.545464 35.179905,104.279442 35.964279,104.247833 
	C38.816216,104.873970 41.179817,105.346207 44.834858,106.076454 
	C43.566765,109.518753 42.434986,112.591019 41.241844,115.829865 
	C38.802246,114.525703 37.453468,113.804680 35.682293,112.857849 
	C35.008121,114.905800 34.499809,116.449921 33.913193,118.037384 
	C33.834888,118.080727 33.820763,118.288742 33.820763,118.288742 
	C33.820763,118.288742 34.006001,118.008476 34.274529,118.170029 
	C34.378452,120.249367 34.213852,122.167152 34.049248,124.084938 
	C34.049248,124.084938 34.053413,124.028290 34.067619,124.053520 
M38.479130,109.872322 
	C39.140263,109.862518 39.801395,109.852715 40.462528,109.842903 
	C39.849110,108.995216 39.235691,108.147530 38.622276,107.299843 
	C38.435276,108.014473 38.248276,108.729095 38.479130,109.872322 
z"/>
<path fill="#6EC79B" opacity="1.000000" stroke="none" 
	d="
M33.991501,117.994034 
	C34.499809,116.449921 35.008121,114.905800 35.682293,112.857849 
	C37.453468,113.804680 38.802246,114.525703 41.241844,115.829865 
	C42.434986,112.591019 43.566765,109.518753 44.834858,106.076454 
	C41.179817,105.346207 38.816216,104.873970 36.193481,104.165886 
	C38.589642,102.353081 41.244930,100.776131 44.367294,98.921783 
	C45.005627,104.061401 45.794064,107.919746 45.811630,111.781586 
	C45.818615,113.317513 44.377518,115.121994 43.142574,116.347702 
	C40.474339,118.996010 37.513237,121.349258 34.360596,123.954071 
	C34.213852,122.167152 34.378452,120.249367 34.271511,118.165802 
	C33.999969,118.000015 33.991497,117.994034 33.991501,117.994034 
z"/>
<path fill="#8CBFE6" opacity="1.000000" stroke="none" 
	d="
M118.539383,28.137974 
	C111.134705,29.928999 103.304214,31.634930 95.205338,33.125832 
	C102.662498,31.291496 110.388031,29.672188 118.539383,28.137974 
z"/>
<path fill="#6EC79B" opacity="1.000000" stroke="none" 
	d="
M31.569628,106.902504 
	C31.139896,108.139366 30.357767,109.400734 29.019958,110.996353 
	C27.974997,112.218925 27.485716,113.107231 26.996433,113.995537 
	C26.379995,114.460442 25.763557,114.925346 25.070860,115.688705 
	C24.517096,115.987808 24.039593,115.988441 23.204300,115.970818 
	C25.636753,112.944031 28.426992,109.935516 31.569628,106.902504 
z"/>
<path fill="#62C794" opacity="1.000000" stroke="none" 
	d="
M270.316406,167.034760 
	C270.008606,166.267197 269.921112,165.490250 269.833588,164.713303 
	C270.209442,165.290192 270.585327,165.867081 270.968384,166.756134 
	C270.975555,167.068283 270.536682,167.025360 270.316406,167.034760 
z"/>
<path fill="#6EC79B" opacity="1.000000" stroke="none" 
	d="
M34.638695,104.927826 
	C34.176380,105.570465 33.387619,106.248947 32.244064,106.921074 
	C32.696926,106.264366 33.504585,105.614014 34.638695,104.927826 
z"/>
<path fill="#8CBFE6" opacity="1.000000" stroke="none" 
	d="
M123.638000,27.062166 
	C122.900909,27.420696 121.793114,27.701107 120.331688,27.976006 
	C121.074478,27.641676 122.170883,27.312862 123.638000,27.062166 
z"/>
<path fill="#6EC79B" opacity="1.000000" stroke="none" 
	d="
M21.655613,116.982597 
	C21.753063,117.430588 21.547632,117.996986 21.097603,118.748299 
	C21.019579,118.322479 21.186155,117.711739 21.655613,116.982597 
z"/>
<path fill="#235174" opacity="1.000000" stroke="none" 
	d="
M194.018768,44.026997 
	C194.245392,44.195770 194.495224,44.316490 195.062073,44.828758 
	C196.583862,45.388500 197.811874,45.508652 199.039871,45.628807 
	C199.553314,45.925636 200.066772,46.222469 200.540558,47.038773 
	C199.251663,48.863739 198.002411,50.169228 196.753159,51.474724 
	C196.055206,51.265575 195.357254,51.056423 194.132141,50.404015 
	C191.701813,49.639656 189.799530,49.045288 187.895370,49.039185 
	C165.593460,48.967678 143.291245,48.984550 120.990799,48.610466 
	C120.995842,47.507595 120.999207,46.772350 120.997108,45.783524 
	C120.989723,45.192402 120.987808,44.854862 121.420914,44.418762 
	C124.236763,44.229191 126.617584,44.138184 128.998413,44.047176 
	C128.998413,44.047176 128.988434,44.358749 129.188019,44.784592 
	C131.936752,45.485931 134.485886,45.761421 137.364349,46.273949 
	C142.116531,46.353729 146.539383,46.196472 151.311615,46.032013 
	C152.126877,46.016186 152.592743,46.007561 153.494751,45.996693 
	C156.268478,45.996029 158.606079,45.997608 161.217743,46.010498 
	C161.674561,46.028522 161.857300,46.035236 162.330582,46.265778 
	C164.738403,46.341869 166.855713,46.194134 168.976318,45.809376 
	C168.962311,45.256618 168.960464,44.940792 169.406555,44.492874 
	C172.236740,44.449272 174.634476,44.537678 177.034821,44.862743 
	C177.019135,45.414776 177.015503,45.730320 177.331207,46.270645 
	C180.081543,46.337673 182.527191,46.180080 185.391235,46.015171 
	C188.203537,45.514400 190.597473,45.020939 193.242859,44.391296 
	C193.669144,44.179077 193.843964,44.103035 194.018768,44.026997 
z"/>
<path fill="#2B5678" opacity="1.000000" stroke="none" 
	d="
M121.002579,46.037102 
	C120.999207,46.772350 120.995842,47.507595 120.532669,48.614693 
	C116.694839,48.996719 113.316818,49.006897 109.638535,49.171032 
	C107.989937,50.665489 106.641579,52.005985 105.293228,53.346485 
	C106.168266,53.897675 107.043297,54.448864 107.918335,55.000053 
	C107.918335,61.304836 107.918335,67.609619 107.918335,74.251358 
	C106.120094,74.251358 104.391899,74.251358 102.011238,74.251358 
	C102.011238,66.659126 101.726151,59.201710 102.113785,51.779430 
	C102.362671,47.014008 106.866646,45.981159 110.929268,44.744953 
	C114.638931,45.450310 117.820755,45.743706 121.002579,46.037102 
z"/>
<path fill="#234F70" opacity="1.000000" stroke="none" 
	d="
M99.938705,80.710510 
	C102.660843,80.765930 105.382973,80.821350 108.987793,80.871490 
	C111.915474,80.949455 113.960472,81.032707 115.984123,81.492455 
	C114.213943,83.241943 112.621376,84.933746 110.668701,85.890823 
	C108.993195,86.712059 106.905884,86.693085 104.540909,87.136429 
	C99.056595,87.157089 94.032043,87.086998 89.005432,86.760437 
	C89.001335,86.332993 88.999298,86.162018 88.911469,85.664795 
	C85.147575,81.008766 84.610680,81.099533 78.745186,87.005524 
	C78.149887,87.034660 77.810036,87.057793 77.470192,87.080933 
	C77.637131,86.296272 77.804062,85.511612 78.282730,84.326660 
	C78.866501,83.654259 79.138535,83.382149 79.410576,83.110046 
	C81.070320,82.361282 82.730072,81.612518 85.123344,80.846748 
	C86.905022,80.785843 87.953171,80.741951 89.001320,80.698059 
	C92.050102,80.748932 95.098892,80.799805 98.823456,80.840607 
	C99.499245,80.830536 99.938705,80.710510 99.938705,80.710510 
z"/>
<path fill="#204B6A" opacity="1.000000" stroke="none" 
	d="
M109.938789,49.017075 
	C113.316818,49.006897 116.694839,48.996719 120.530991,48.982315 
	C143.291245,48.984550 165.593460,48.967678 187.895370,49.039185 
	C189.799530,49.045288 191.701813,49.639656 193.787323,50.285866 
	C166.304047,50.660168 138.638397,50.709358 110.503716,50.443275 
	C110.002708,49.757698 109.970749,49.387386 109.938789,49.017075 
z"/>
<path fill="#2C5675" opacity="1.000000" stroke="none" 
	d="
M202.013840,104.854568 
	C201.263046,104.907715 200.512268,104.960869 199.378571,104.504364 
	C198.992874,102.508217 198.987671,101.021736 198.987610,99.535248 
	C198.987076,85.826492 198.951752,72.117523 199.032242,58.409233 
	C199.042404,56.675652 198.028076,53.522324 201.998016,55.428619 
	C202.003998,72.219803 202.008926,88.537186 202.013840,104.854568 
z"/>
<path fill="#1F4E72" opacity="1.000000" stroke="none" 
	d="
M77.357750,87.064835 
	C77.810036,87.057793 78.149887,87.034660 78.744202,87.450722 
	C79.005714,90.266937 79.012749,92.643951 79.017334,95.487427 
	C79.017754,103.961166 79.020615,111.968437 79.017319,120.445847 
	C78.877411,134.773422 78.743645,148.630844 78.609879,162.488266 
	C78.235321,162.112167 77.860764,161.736069 77.297134,161.169601 
	C77.117828,160.535751 77.127586,160.092285 77.116066,158.862854 
	C77.210144,140.372299 77.325500,122.667725 77.528290,104.862442 
	C77.723442,104.487587 77.669800,104.247704 77.383530,103.577461 
	C77.215736,97.743095 77.119209,92.373360 77.022675,87.003624 
	C77.022675,87.003624 77.245308,87.048752 77.357750,87.064835 
z"/>
<path fill="#2C5C82" opacity="1.000000" stroke="none" 
	d="
M201.996948,54.954819 
	C198.028076,53.522324 199.042404,56.675652 199.032242,58.409233 
	C198.951752,72.117523 198.987076,85.826492 198.987610,99.535248 
	C198.987671,101.021736 198.992874,102.508217 199.004028,104.457855 
	C198.417648,103.296646 197.329086,101.679642 197.304749,100.046768 
	C197.067688,84.145142 197.008606,68.240860 196.825989,51.906025 
	C198.002411,50.169228 199.251663,48.863739 200.704590,47.288673 
	C201.190186,47.164848 201.448547,47.344509 201.998596,47.997242 
	C202.620880,50.598541 202.927917,52.760677 202.925644,54.938118 
	C202.409866,54.953888 202.203415,54.954353 201.996948,54.954819 
z"/>
<path fill="#275880" opacity="1.000000" stroke="none" 
	d="
M124.064415,102.989220 
	C124.006805,109.350037 123.949196,115.710861 123.894623,122.948380 
	C123.948082,125.215508 123.998505,126.605934 124.048920,127.996353 
	C124.003654,130.044434 123.958382,132.092499 123.915695,134.995178 
	C123.839378,137.547592 123.760490,139.245392 123.474106,140.820221 
	C122.846870,140.460800 122.427139,140.224365 122.005905,139.520660 
	C121.667732,121.046165 121.331070,103.038979 120.967422,84.774727 
	C120.901909,84.349724 120.863396,84.181770 120.900909,83.977615 
	C120.976929,83.941422 121.145294,83.938118 121.499878,84.064545 
	C122.514107,86.159470 123.582603,88.094139 123.748871,90.103455 
	C124.102585,94.378143 123.987411,98.691635 124.064415,102.989220 
z"/>
<path fill="#8BC7F9" opacity="1.000000" stroke="none" 
	d="
M203.234955,54.922813 
	C202.927917,52.760677 202.620880,50.598541 202.209534,48.104004 
	C203.057266,48.945469 204.826431,50.110973 204.838531,51.294456 
	C205.013565,68.401131 204.966248,85.510277 204.899643,102.618553 
	C204.896927,103.313858 204.179443,104.006378 203.525360,104.396111 
	C203.248825,87.702286 203.241898,71.312553 203.234955,54.922813 
z"/>
<path fill="#80C1F3" opacity="1.000000" stroke="none" 
	d="
M76.772270,87.334312 
	C77.119209,92.373360 77.215736,97.743095 77.319695,103.806763 
	C77.327118,104.500687 77.440857,104.963142 77.440857,104.963142 
	C77.325500,122.667725 77.210144,140.372299 77.024399,158.541901 
	C76.475700,158.439957 75.577354,157.871307 75.579651,157.306305 
	C75.668800,135.394012 75.831795,113.481987 76.021828,91.570244 
	C76.033127,90.267143 76.348160,88.966690 76.772270,87.334312 
z"/>
<path fill="#2C5C82" opacity="1.000000" stroke="none" 
	d="
M153.266144,149.230606 
	C152.670609,150.434021 151.689301,151.666351 150.200836,152.522064 
	C146.168411,151.753677 142.641510,151.375824 139.118240,150.966782 
	C134.163055,150.391495 130.478821,151.263870 130.739243,157.525116 
	C130.785965,158.648361 129.602768,159.822769 128.959045,160.642532 
	C128.904190,160.091614 128.877731,159.871719 128.851273,159.651840 
	C129.214066,157.032181 129.576859,154.412537 129.868134,151.391647 
	C130.320114,150.413437 130.843613,149.836456 132.134979,149.227234 
	C138.275192,149.142349 143.647552,149.089676 149.019913,149.037018 
	C150.306732,149.111191 151.593536,149.185349 153.266144,149.230606 
z"/>
<path fill="#194C75" opacity="1.000000" stroke="none" 
	d="
M224.722763,113.813614 
	C208.616058,113.761337 192.288498,113.336090 175.958679,113.032059 
	C171.832092,112.955231 167.698288,113.265411 163.279007,113.191841 
	C164.878616,112.588028 166.765640,111.852928 168.655670,111.845055 
	C185.253510,111.775848 201.852371,111.781113 218.449448,111.929756 
	C220.471146,111.947853 222.484070,112.943161 224.722763,113.813614 
z"/>
<path fill="#18496D" opacity="1.000000" stroke="none" 
	d="
M202.925644,54.938118 
	C203.241898,71.312553 203.248825,87.702286 203.167572,104.554871 
	C202.899673,105.004570 202.719955,104.991417 202.277039,104.916412 
	C202.008926,88.537186 202.003998,72.219803 201.998016,55.428619 
	C202.203415,54.954353 202.409866,54.953888 202.925644,54.938118 
z"/>
<path fill="#85CAFE" opacity="1.000000" stroke="none" 
	d="
M229.959595,155.404236 
	C229.207214,154.548416 227.791428,153.298004 227.763641,152.017456 
	C227.580688,143.584854 227.763062,135.145111 227.681976,126.709091 
	C227.650421,123.423737 227.244873,120.141975 226.987747,116.438522 
	C227.707336,117.724777 229.029739,119.408806 229.096191,121.141029 
	C229.528870,132.420090 229.688934,143.709595 229.959595,155.404236 
z"/>
<path fill="#204663" opacity="1.000000" stroke="none" 
	d="
M153.058624,45.998936 
	C152.592743,46.007561 152.126877,46.016186 150.851730,46.023808 
	C145.706650,46.027508 141.370850,46.032211 137.035034,46.036911 
	C134.485886,45.761421 131.936752,45.485931 129.162476,44.938347 
	C131.317596,44.552364 133.697845,44.438469 136.977509,44.311249 
	C142.890656,44.390049 147.904434,44.482182 152.932281,44.812416 
	C152.996063,45.365208 153.033493,45.681347 153.058624,45.998936 
z"/>
<path fill="#15466E" opacity="1.000000" stroke="none" 
	d="
M160.017212,154.700317 
	C159.761597,150.018402 159.828568,145.126862 159.811813,140.235611 
	C159.789764,133.796875 159.701920,127.358360 159.560181,120.457657 
	C159.607529,119.247528 159.737045,118.499489 159.970795,117.385826 
	C160.385162,118.775810 160.981567,120.535156 160.958603,122.286392 
	C160.817825,133.022217 160.536835,143.756210 160.017212,154.700317 
z"/>
<path fill="#85CAFE" opacity="1.000000" stroke="none" 
	d="
M152.918198,44.574310 
	C147.904434,44.482182 142.890656,44.390049 137.412750,44.207100 
	C137.520340,43.799713 138.093887,43.203880 138.663544,43.207569 
	C151.565094,43.291172 164.466232,43.440453 177.443726,43.971760 
	C177.357407,44.452770 177.194809,44.539425 177.032227,44.626083 
	C174.634476,44.537678 172.236740,44.449272 168.975616,44.394062 
	C165.768326,44.478512 163.424377,44.529774 160.642975,44.445072 
	C157.776398,44.397511 155.347305,44.485909 152.918198,44.574310 
z"/>
<path fill="#87C3F6" opacity="1.000000" stroke="none" 
	d="
M123.681610,140.943207 
	C123.760490,139.245392 123.839378,137.547592 123.988060,135.429062 
	C124.376968,140.378967 124.696083,145.749603 125.022598,151.559219 
	C124.858604,155.426575 125.797737,159.276596 121.323196,160.723083 
	C121.786949,158.543503 122.479553,156.798767 123.325714,154.827255 
	C123.529205,154.064117 123.579147,153.527740 123.710999,152.666702 
	C123.760437,151.898697 123.727966,151.455368 123.771286,150.586548 
	C123.799370,148.437332 123.751678,146.713577 123.765930,144.587677 
	C123.779114,143.104752 123.730362,142.023987 123.681610,140.943207 
z"/>
<path fill="#87C3F6" opacity="1.000000" stroke="none" 
	d="
M124.296799,102.651390 
	C123.987411,98.691635 124.102585,94.378143 123.748871,90.103455 
	C123.582603,88.094139 122.514107,86.159470 121.393456,83.778885 
	C120.782089,82.989021 120.631737,82.611244 120.481377,82.233459 
	C125.903999,83.688568 126.420853,85.067970 125.310432,90.606430 
	C124.548203,94.408195 124.755356,98.404320 124.296799,102.651390 
z"/>
<path fill="#204663" opacity="1.000000" stroke="none" 
	d="
M177.034821,44.862740 
	C177.194809,44.539425 177.357407,44.452770 177.764923,44.238129 
	C179.713318,44.178123 181.416779,44.246113 183.983032,44.303368 
	C187.561005,44.370922 190.276199,44.449203 192.991394,44.527481 
	C190.597473,45.020939 188.203537,45.514400 184.950867,46.013260 
	C181.736923,46.027779 179.381729,46.036903 177.026520,46.046028 
	C177.015503,45.730320 177.019135,45.414776 177.034821,44.862740 
z"/>
<path fill="#18496D" opacity="1.000000" stroke="none" 
	d="
M120.174675,82.166306 
	C120.631737,82.611244 120.782089,82.989021 121.038864,83.652466 
	C121.145294,83.938118 120.976929,83.941422 120.553665,83.979752 
	C119.094215,84.684608 118.058037,85.351135 116.958374,86.414124 
	C116.853073,87.074959 116.811264,87.339348 116.396194,87.509781 
	C115.008362,87.418907 113.993797,87.421974 112.542282,87.349709 
	C109.737122,87.198143 107.368896,87.121910 105.000679,87.045670 
	C106.905884,86.693085 108.993195,86.712059 110.668701,85.890823 
	C112.621376,84.933746 114.213943,83.241943 116.231262,81.406052 
	C116.667160,80.893784 116.834549,80.844414 117.001945,80.795036 
	C117.957283,81.229744 118.912628,81.664452 120.174675,82.166306 
z"/>
<path fill="#204663" opacity="1.000000" stroke="none" 
	d="
M120.997108,45.783524 
	C117.820755,45.743706 114.638931,45.450310 111.270996,44.856384 
	C111.504761,44.479733 111.924652,44.403614 113.085114,44.312286 
	C116.212425,44.370491 118.599159,44.443905 120.985886,44.517319 
	C120.987808,44.854862 120.989723,45.192402 120.997108,45.783524 
z"/>
<path fill="#80C1F3" opacity="1.000000" stroke="none" 
	d="
M148.688004,148.785858 
	C143.647552,149.089676 138.275192,149.142349 132.436249,149.126190 
	C137.431808,148.883148 142.893951,148.708923 148.688004,148.785858 
z"/>
<path fill="#2C5C82" opacity="1.000000" stroke="none" 
	d="
M109.638535,49.171032 
	C109.970749,49.387386 110.002708,49.757698 110.039444,50.406898 
	C109.390053,51.892395 108.735878,53.099003 108.000015,54.652832 
	C107.043297,54.448864 106.168266,53.897675 105.293228,53.346485 
	C106.641579,52.005985 107.989937,50.665489 109.638535,49.171032 
z"/>
<path fill="#85CAFE" opacity="1.000000" stroke="none" 
	d="
M121.420914,44.418758 
	C118.599159,44.443905 116.212425,44.370491 113.385223,44.199402 
	C118.078392,43.913116 123.212021,43.724510 128.672028,43.791542 
	C126.617584,44.138184 124.236763,44.229191 121.420914,44.418758 
z"/>
<path fill="#87C3F6" opacity="1.000000" stroke="none" 
	d="
M116.870857,80.480499 
	C116.834549,80.844414 116.667160,80.893784 116.252625,81.029549 
	C113.960472,81.032707 111.915474,80.949455 109.435837,80.802124 
	C111.580719,80.547340 114.160248,80.356651 116.870857,80.480499 
z"/>
<path fill="#85CAFE" opacity="1.000000" stroke="none" 
	d="
M193.242859,44.391300 
	C190.276199,44.449203 187.561005,44.370922 184.398956,44.202156 
	C187.095779,43.919773 190.239456,43.727875 193.700958,43.781487 
	C193.843964,44.103035 193.669144,44.179077 193.242859,44.391300 
z"/>
<path fill="#2C5C82" opacity="1.000000" stroke="none" 
	d="
M198.776031,45.399727 
	C197.811874,45.508652 196.583862,45.388500 195.235962,44.944511 
	C196.248108,44.804005 197.380142,44.987328 198.776031,45.399727 
z"/>
<path fill="#87C3F6" opacity="1.000000" stroke="none" 
	d="
M88.913086,80.443726 
	C87.953171,80.741951 86.905022,80.785843 85.468918,80.757217 
	C86.328926,80.519592 87.576889,80.354492 88.913086,80.443726 
z"/>
<path fill="#87C3F6" opacity="1.000000" stroke="none" 
	d="
M124.264313,127.729919 
	C123.998505,126.605934 123.948082,125.215508 123.967026,123.412064 
	C124.184158,124.487183 124.331924,125.975334 124.264313,127.729919 
z"/>
<path fill="#85CAFE" opacity="1.000000" stroke="none" 
	d="
M197.010559,43.638359 
	C196.921204,43.637295 197.014496,43.354431 197.014496,43.354431 
	C197.014496,43.354431 197.099930,43.639423 197.010559,43.638359 
z"/>
<path fill="#80C1F3" opacity="1.000000" stroke="none" 
	d="
M79.139389,83.215088 
	C79.138535,83.382149 78.866501,83.654259 78.315399,84.020615 
	C78.313622,83.849953 78.590912,83.585045 79.139389,83.215088 
z"/>
<path fill="#87C3F6" opacity="1.000000" stroke="none" 
	d="
M99.838898,80.628624 
	C99.938705,80.710510 99.499245,80.830536 99.277786,80.777702 
	C99.249146,80.503075 99.476738,80.443703 99.838898,80.628624 
z"/>
<path fill="#5CC490" opacity="1.000000" stroke="none" 
	d="
M208.998169,186.001068 
	C210.257401,186.669601 211.542816,187.293930 212.767975,188.019928 
	C213.852417,188.662537 214.869797,189.418274 215.948456,190.494141 
	C206.552887,192.107437 197.129349,193.380188 187.694809,194.565399 
	C186.089432,194.767075 184.436905,194.593491 182.312592,194.042435 
	C180.839783,193.004120 179.863724,192.099838 178.880798,192.092316 
	C166.061172,191.994202 153.239655,191.956177 140.421844,192.135681 
	C139.286194,192.151596 138.173309,193.793808 137.049866,194.680679 
	C133.565781,194.284286 130.081711,193.887909 126.520081,193.048798 
	C127.388504,192.130035 128.334473,191.653976 130.611176,190.508209 
	C127.780136,190.251282 126.387184,190.124863 124.856552,189.635712 
	C119.436340,186.513641 114.632980,187.905060 110.022751,190.969498 
	C108.633759,190.919678 107.244774,190.869858 105.481689,190.394012 
	C106.250671,189.292725 107.446571,188.690826 108.519615,187.918320 
	C109.334068,187.331924 109.992149,186.528336 110.719818,185.821396 
	C109.706039,185.231827 108.643715,184.074142 107.687302,184.155853 
	C104.407074,184.436157 101.163956,185.150925 97.833176,185.712433 
	C98.553299,186.908737 99.260155,188.082993 99.967010,189.257248 
	C98.580238,189.129745 97.193474,189.002243 95.280754,188.484131 
	C94.009483,187.788391 93.264160,187.483261 92.518845,187.178131 
	C91.590424,187.156387 90.662003,187.134659 89.385620,187.119232 
	C89.948769,185.864685 90.859871,184.603806 91.652344,183.507111 
	C90.717278,181.472076 89.863121,179.613129 89.004478,177.377075 
	C89.000000,177.000000 89.000305,177.000000 89.419243,177.000214 
	C91.892502,176.332397 93.946823,175.664368 96.333809,174.858398 
	C103.306961,174.479752 109.958015,174.381638 116.579895,173.890289 
	C118.088165,173.778381 119.495514,172.306427 121.379364,171.362976 
	C123.859680,171.196136 125.909958,171.126755 128.316956,171.265671 
	C137.103653,171.569504 145.533600,171.665039 154.091522,172.146973 
	C155.032318,173.003647 155.821350,173.831619 156.661743,173.887527 
	C163.434616,174.338104 170.217163,174.643341 177.110535,175.333893 
	C187.815598,179.116928 198.406891,182.558990 208.998169,186.001068 
M105.255859,181.813812 
	C107.091583,181.199097 108.927307,180.584381 110.763031,179.969666 
	C110.569298,179.318970 110.375557,178.668274 110.181824,178.017563 
	C105.743629,179.206635 101.305435,180.395706 96.867241,181.584763 
	C96.931580,182.074570 96.995911,182.564377 97.060242,183.054169 
	C99.569962,182.799057 102.079681,182.543945 105.255859,181.813812 
z"/>
<path fill="#5DC67D" opacity="1.000000" stroke="none" 
	d="
M137.507355,194.770447 
	C138.173309,193.793808 139.286194,192.151596 140.421844,192.135681 
	C153.239655,191.956177 166.061172,191.994202 178.880798,192.092316 
	C179.863724,192.099838 180.839783,193.004120 181.969284,193.889114 
	C171.872772,194.543076 161.626923,194.851654 151.378815,195.031754 
	C146.909882,195.110306 142.436295,194.925461 137.507355,194.770447 
z"/>
<path fill="#62C694" opacity="1.000000" stroke="none" 
	d="
M100.220573,189.474579 
	C99.260155,188.082993 98.553299,186.908737 97.833176,185.712433 
	C101.163956,185.150925 104.407074,184.436157 107.687302,184.155853 
	C108.643715,184.074142 109.706039,185.231827 110.719818,185.821396 
	C109.992149,186.528336 109.334068,187.331924 108.519615,187.918320 
	C107.446571,188.690826 106.250671,189.292725 105.071426,190.318481 
	C103.514877,190.343277 101.994507,190.017609 100.220573,189.474579 
z"/>
<path fill="#5DC67D" opacity="1.000000" stroke="none" 
	d="
M124.994232,189.998444 
	C126.387184,190.124863 127.780136,190.251282 130.611176,190.508209 
	C128.334473,191.653976 127.388504,192.130035 126.198074,192.835297 
	C122.965576,192.945236 119.977547,192.825974 116.582428,192.257812 
	C119.114975,191.205429 122.054604,190.601944 124.994232,189.998444 
z"/>
<path fill="#62C694" opacity="1.000000" stroke="none" 
	d="
M124.856552,189.635712 
	C122.054604,190.601944 119.114975,191.205429 116.147888,192.154419 
	C114.264381,192.142166 112.408310,191.784393 110.287498,191.198059 
	C114.632980,187.905060 119.436340,186.513641 124.856552,189.635712 
z"/>
<path fill="#62C694" opacity="1.000000" stroke="none" 
	d="
M92.682068,187.451599 
	C93.264160,187.483261 94.009483,187.788391 94.875992,188.378372 
	C94.279884,188.350510 93.562592,188.037781 92.682068,187.451599 
z"/>
<path fill="#5FC786" opacity="1.000000" stroke="none" 
	d="
M120.949310,171.460449 
	C119.495514,172.306427 118.088165,173.778381 116.579895,173.890289 
	C109.958015,174.381638 103.306961,174.479752 95.941200,174.839203 
	C93.144356,174.639648 91.072784,174.321350 88.999893,173.668900 
	C88.995079,172.889191 88.991608,172.443649 88.988129,171.998093 
	C91.345291,171.925522 93.703148,171.870361 96.059364,171.774673 
	C97.837593,171.702454 99.613716,171.578415 101.700241,171.234497 
	C102.764481,170.985260 103.519264,170.978989 104.910828,171.228455 
	C107.032722,171.377258 108.517853,171.270355 110.002975,171.163452 
	C110.002975,171.163437 109.986435,170.956650 110.411880,170.933746 
	C113.560921,170.923676 116.284508,170.936493 119.337189,171.001694 
	C120.109276,171.034180 120.552277,171.014267 120.972176,171.109741 
	C120.949081,171.225113 120.949310,171.460449 120.949310,171.460449 
z"/>
<path fill="#5CC490" opacity="1.000000" stroke="none" 
	d="
M88.632202,172.013947 
	C88.991608,172.443649 88.995079,172.889191 88.999649,174.043457 
	C89.000595,175.501450 89.000450,176.250717 89.000305,177.000000 
	C89.000305,177.000000 89.000000,177.000000 88.999847,177.000000 
	C87.824966,176.166977 86.650238,175.333954 85.475517,174.500916 
	C86.409103,173.677216 87.342697,172.853500 88.632202,172.013947 
z"/>
<path fill="#7BC0FD" opacity="1.000000" stroke="none" 
	d="
M166.100281,120.070404 
	C167.330383,119.396118 168.555389,118.145912 169.791367,118.134972 
	C185.442215,117.996269 201.095367,118.114983 216.746094,117.969467 
	C220.258881,117.936806 221.392227,119.180542 221.326569,122.616669 
	C221.151642,131.771576 221.091614,140.936096 221.329163,150.087906 
	C221.429169,153.940430 219.955338,154.902435 216.376862,154.868469 
	C200.893005,154.721420 185.407043,154.795044 169.321228,154.380341 
	C168.148849,152.317352 167.188522,150.686691 167.083298,149.002625 
	C166.837372,145.067032 167.111557,141.101974 166.974350,137.155838 
	C166.776215,131.457443 166.400314,125.765244 166.100281,120.070404 
z"/>
<path fill="#62C794" opacity="1.000000" stroke="none" 
	d="
M209.321854,185.760345 
	C198.406891,182.558990 187.815598,179.116928 177.418396,175.101166 
	C179.901001,174.136368 182.189514,173.745255 184.478043,173.354156 
	C184.463562,173.005905 184.449097,172.657639 184.434631,172.309387 
	C180.952972,171.852097 177.471329,171.394806 174.275055,170.718536 
	C176.410934,170.016724 178.261459,169.533905 180.426590,169.076294 
	C181.160568,169.072159 181.579910,169.042801 182.432434,169.045746 
	C184.868408,168.961853 186.871231,168.845673 189.231522,168.739868 
	C190.059570,168.679367 190.530136,168.608475 191.381119,168.576813 
	C194.876434,168.044846 197.991333,167.473618 201.489349,166.906204 
	C203.584320,166.397491 205.296188,165.884964 207.008041,165.372437 
	C208.749924,165.239182 210.491821,165.105942 212.945679,165.255615 
	C218.101227,165.022522 222.544800,164.506500 226.988388,163.990463 
	C229.304825,164.859573 231.893127,165.328156 233.882797,166.678665 
	C238.454315,169.781570 240.599289,169.636581 244.038071,164.541885 
	C242.126846,164.427383 240.636765,164.338104 238.767731,164.226135 
	C239.160217,163.019226 239.575775,161.741333 239.929840,160.652542 
	C242.062988,160.371780 244.048386,160.340851 245.895706,159.820099 
	C249.946594,158.678223 253.927750,157.288971 257.936768,155.998856 
	C258.566772,155.796112 259.561951,155.764221 259.765900,155.348190 
	C262.245392,150.290970 267.159363,151.817307 271.599731,151.002396 
	C272.000000,151.000000 272.004883,151.004883 272.004883,151.004883 
	C271.250549,152.226974 270.496216,153.449066 269.599121,154.902481 
	C270.339630,155.991226 271.862091,158.229599 273.384521,160.467972 
	C273.042725,160.785629 272.700928,161.103271 272.359100,161.420914 
	C271.322540,161.146805 270.285950,160.872696 268.523224,160.406555 
	C267.283813,163.087570 266.259613,166.129288 264.527222,168.692261 
	C263.695831,169.922272 261.564148,170.764206 259.954102,170.884872 
	C255.167816,171.243622 250.047836,170.580399 248.519501,176.957062 
	C248.486221,177.095947 248.326279,177.251404 248.187515,177.311310 
	C242.227997,179.883209 236.063995,182.068512 230.351990,185.104462 
	C223.350342,188.825882 216.477249,183.191833 209.321854,185.760345 
z"/>
<path fill="#7BC1FD" opacity="1.000000" stroke="none" 
	d="
M181.999268,169.013443 
	C181.579910,169.042801 181.160568,169.072159 179.962799,169.055939 
	C175.763992,169.550842 172.343567,170.091324 168.941544,170.742126 
	C168.959930,170.852448 168.999054,171.072708 168.584106,171.017929 
	C166.779175,171.028549 165.389206,171.093964 163.999298,171.065613 
	C163.999344,170.971848 164.005966,170.784454 163.825806,170.646637 
	C163.113525,170.620300 162.581436,170.731766 161.629486,170.901993 
	C159.798599,170.956024 158.387543,170.951294 156.640228,170.711563 
	C149.899887,170.317596 143.495163,170.025681 137.092026,170.057602 
	C134.046509,170.072769 131.004059,170.704803 127.960228,171.057388 
	C125.909958,171.126755 123.859680,171.196136 121.379364,171.362976 
	C120.949310,171.460449 120.949081,171.225113 120.809586,170.930542 
	C120.116089,170.740417 119.562088,170.844864 119.008095,170.949310 
	C116.284508,170.936493 113.560921,170.923676 110.386780,170.833099 
	C111.509201,169.606445 112.988174,167.653564 114.672455,167.456635 
	C120.124641,166.819122 125.650520,166.696365 131.151245,166.625305 
	C135.751404,166.565872 140.356445,166.973404 144.958725,166.960770 
	C149.538986,166.948196 151.023331,164.799789 149.910614,160.216675 
	C148.867569,155.920486 150.326553,154.485565 154.918900,155.673676 
	C151.280655,156.377655 152.537018,158.780807 153.058228,161.614197 
	C153.395081,163.629776 153.711838,164.912460 154.028625,166.195145 
	C154.378906,165.717300 154.729187,165.239441 155.079468,164.761581 
	C156.775299,164.857086 158.471115,164.952576 160.690857,165.430939 
	C162.479980,165.656509 163.745178,165.499237 165.010376,165.341980 
	C166.039978,165.298874 167.069565,165.255768 168.613281,165.534760 
	C170.458099,165.668076 171.788834,165.479263 173.562668,165.266068 
	C176.662628,165.362732 179.319489,165.483780 181.982330,165.944702 
	C181.991959,167.194183 181.995621,168.103821 181.999268,169.013443 
z"/>
<path fill="#2E5074" opacity="1.000000" stroke="none" 
	d="
M225.942703,123.636772 
	C225.976120,133.542816 225.976120,143.022064 225.976120,152.501312 
	C225.298950,152.552597 224.621780,152.603882 223.944611,152.655167 
	C223.633911,151.559250 223.064331,150.465805 223.053818,149.367035 
	C222.975769,141.207993 222.954941,133.047119 223.069443,124.888977 
	C223.085205,123.765289 223.945236,122.653450 224.414398,121.536133 
	C224.912704,122.094078 225.410995,122.652023 225.942703,123.636772 
z"/>
<path fill="#18496D" opacity="1.000000" stroke="none" 
	d="
M165.685791,153.983353 
	C165.141266,153.229706 164.120499,152.473846 164.123962,151.722748 
	C164.172836,141.176590 164.361298,130.631088 164.875839,120.270844 
	C165.340698,120.708481 165.505508,120.912209 165.751328,121.531105 
	C165.743500,132.657623 165.714645,143.320496 165.685791,153.983353 
z"/>
<path fill="#8BC7F9" opacity="1.000000" stroke="none" 
	d="
M165.945328,154.228516 
	C165.714645,143.320496 165.743500,132.657623 165.838486,121.251228 
	C165.886169,120.313148 165.867737,120.118599 165.849304,119.924057 
	C165.849304,119.924057 166.008926,119.938622 166.054596,120.004509 
	C166.400314,125.765244 166.776215,131.457443 166.974350,137.155838 
	C167.111557,141.101974 166.837372,145.067032 167.083298,149.002625 
	C167.188522,150.686691 168.148849,152.317352 168.858154,154.305222 
	C168.065414,154.583328 167.135132,154.528503 165.945328,154.228516 
z"/>
<path fill="#204663" opacity="1.000000" stroke="none" 
	d="
M181.976334,165.604828 
	C179.319489,165.483780 176.662628,165.362732 173.187164,165.154617 
	C171.588974,164.993027 170.809418,164.918503 170.029861,164.843994 
	C180.118927,164.718262 190.207993,164.592545 200.370636,164.814789 
	C200.281433,165.265732 200.118683,165.368683 199.515778,165.425903 
	C197.025299,165.506149 194.974945,165.632095 192.503174,165.626404 
	C189.730438,165.541809 187.379150,165.588882 184.656631,165.513123 
	C183.515717,165.461807 182.746033,165.533325 181.976334,165.604828 
z"/>
<path fill="#66BBA0" opacity="1.000000" stroke="none" 
	d="
M227.111954,163.736343 
	C222.544800,164.506500 218.101227,165.022522 213.375854,165.337463 
	C217.785126,164.088272 222.476196,163.040161 227.570374,161.974823 
	C227.727509,162.465805 227.481522,162.974014 227.111954,163.736343 
z"/>
<path fill="#5F9AC3" opacity="1.000000" stroke="none" 
	d="
M199.955933,165.471619 
	C200.118683,165.368683 200.281433,165.265732 200.709274,165.048172 
	C202.701813,165.032700 204.429276,165.131821 206.582397,165.301697 
	C205.296188,165.884964 203.584320,166.397491 201.361084,166.715057 
	C200.551773,166.170593 200.253845,165.821106 199.955933,165.471619 
z"/>
<path fill="#80C1F3" opacity="1.000000" stroke="none" 
	d="
M154.960327,164.467499 
	C154.729187,165.239441 154.378906,165.717300 154.028625,166.195145 
	C153.711838,164.912460 153.395081,163.629776 153.105927,161.941101 
	C153.702744,162.414551 154.271973,163.293976 154.960327,164.467499 
z"/>
<path fill="#80C1F3" opacity="1.000000" stroke="none" 
	d="
M164.615356,165.255386 
	C163.745178,165.499237 162.479980,165.656509 161.105728,165.523560 
	C162.071228,165.211823 163.145798,165.190308 164.615356,165.255386 
z"/>
<path fill="#5F9AC3" opacity="1.000000" stroke="none" 
	d="
M169.737778,164.943237 
	C170.809418,164.918503 171.588974,164.993027 172.744049,165.179001 
	C171.788834,165.479263 170.458099,165.668076 168.999786,165.563400 
	C169.063370,165.194107 169.254532,165.118301 169.737778,164.943237 
z"/>
<path fill="#66BBA0" opacity="1.000000" stroke="none" 
	d="
M232.592346,160.798309 
	C232.152466,161.037292 231.346695,161.303543 230.306778,161.405411 
	C230.790573,161.102539 231.508499,160.964050 232.592346,160.798309 
z"/>
<path fill="#3E739F" opacity="1.000000" stroke="none" 
	d="
M165.657516,119.962425 
	C165.867737,120.118599 165.886169,120.313148 165.817459,120.787575 
	C165.505508,120.912209 165.340698,120.708481 165.160553,120.274017 
	C165.085266,120.091774 165.465729,120.000793 165.657516,119.962425 
z"/>
<path fill="#62C794" opacity="1.000000" stroke="none" 
	d="
M271.997559,150.997559 
	C272.015259,150.667191 271.905182,150.226593 272.076050,150.029022 
	C273.526276,148.352280 275.027710,146.719803 276.513763,145.074051 
	C277.228912,145.757507 278.621490,146.527649 278.546997,147.110092 
	C278.127472,150.389175 275.780029,151.247147 272.407928,151.003082 
	C272.004883,151.004883 272.000000,151.000000 271.997559,150.997559 
z"/>
<path fill="#62C794" opacity="1.000000" stroke="none" 
	d="
M252.660309,176.272858 
	C252.723419,175.950180 252.906326,175.755615 253.089218,175.561050 
	C253.191620,175.671066 253.294006,175.781097 253.396393,175.891113 
	C253.190948,176.061066 252.985519,176.231018 252.660309,176.272858 
z"/>
<path fill="#295375" opacity="1.000000" stroke="none" 
	d="
M123.695503,151.012039 
	C123.727966,151.455368 123.760437,151.898697 123.476532,152.748947 
	C123.164162,153.788589 123.168159,154.421310 123.172157,155.054031 
	C122.479553,156.798767 121.786949,158.543503 121.046921,160.644730 
	C119.879608,161.970276 118.759712,162.939346 117.111771,163.625336 
	C112.028557,163.614212 107.473381,163.886169 102.918213,164.158112 
	C101.249855,164.220169 99.581490,164.282227 97.176727,163.979492 
	C90.525330,163.218094 84.610344,162.821472 78.695358,162.424866 
	C78.695358,162.424866 78.657730,162.463165 78.633804,162.475708 
	C78.743645,148.630844 78.877411,134.773422 79.383308,120.451653 
	C80.488747,119.980270 81.222061,119.973236 81.969391,120.438469 
	C81.988708,124.041008 81.884460,127.176155 82.023994,130.300430 
	C82.256058,135.496567 82.644539,140.685730 82.975677,146.257690 
	C83.907265,147.652390 84.658813,149.007584 85.802780,149.584030 
	C86.894218,150.133972 88.394325,149.875656 89.715179,149.967026 
	C98.228561,150.555817 106.737083,151.240128 115.258301,151.676300 
	C118.106232,151.822067 119.248238,150.310104 117.723892,147.395660 
	C117.722160,147.260941 117.874062,147.038391 118.114349,146.802307 
	C118.571754,145.710403 118.788872,144.854584 119.320976,143.913513 
	C120.426437,142.548141 121.216919,141.268036 122.007401,139.987946 
	C122.427139,140.224365 122.846870,140.460800 123.474106,140.820221 
	C123.730362,142.023987 123.779114,143.104752 123.460526,144.730804 
	C123.293961,147.188049 123.494728,149.100052 123.695503,151.012039 
M96.929962,155.717911 
	C98.224419,156.858215 99.381218,158.329910 100.889153,158.956284 
	C101.406158,159.171036 103.474434,157.357971 103.611115,156.311600 
	C103.753685,155.220154 102.303406,152.874786 101.756676,152.935745 
	C100.132149,153.116852 98.609528,154.211823 96.929962,155.717911 
z"/>
<path fill="#275071" opacity="1.000000" stroke="none" 
	d="
M128.987427,160.973541 
	C129.602768,159.822769 130.785965,158.648361 130.739243,157.525116 
	C130.478821,151.263870 134.163055,150.391495 139.118240,150.966782 
	C142.641510,151.375824 146.168411,151.753677 149.836975,152.506042 
	C145.058609,154.678436 145.980408,158.444458 146.436981,162.604706 
	C142.988541,163.489288 139.963287,163.965591 136.938049,164.441895 
	C134.610352,164.492523 132.282654,164.543137 129.485565,164.159836 
	C129.006592,162.808456 128.997009,161.890991 128.987427,160.973541 
z"/>
<path fill="#1F4E72" opacity="1.000000" stroke="none" 
	d="
M78.884506,162.773376 
	C84.610344,162.821472 90.525330,163.218094 96.767929,163.887634 
	C91.088242,163.814346 85.080948,163.468109 78.884506,162.773376 
z"/>
<path fill="#31628A" opacity="1.000000" stroke="none" 
	d="
M137.376892,164.553802 
	C139.963287,163.965591 142.988541,163.489288 146.446747,162.990479 
	C143.858398,163.533890 140.837067,164.099808 137.376892,164.553802 
z"/>
<path fill="#1F4E72" opacity="1.000000" stroke="none" 
	d="
M103.385269,164.233307 
	C107.473381,163.886169 112.028557,163.614212 116.777908,163.624908 
	C112.598831,164.041214 108.225578,164.174866 103.385269,164.233307 
z"/>
<path fill="#31628A" opacity="1.000000" stroke="none" 
	d="
M128.959045,160.642532 
	C128.997009,161.890991 129.006592,162.808456 129.059006,164.065948 
	C126.733345,163.929794 126.733345,163.929794 128.634064,159.935089 
	C128.877731,159.871719 128.904190,160.091614 128.959045,160.642532 
z"/>
<path fill="#62C694" opacity="1.000000" stroke="none" 
	d="
M109.592133,171.092224 
	C108.517853,171.270355 107.032722,171.377258 105.286072,171.273315 
	C106.410126,171.048645 107.795708,171.034821 109.592133,171.092224 
z"/>
<path fill="#6EC79B" opacity="1.000000" stroke="none" 
	d="
M38.270203,109.658020 
	C38.248276,108.729095 38.435276,108.014473 38.622276,107.299843 
	C39.235691,108.147530 39.849110,108.995216 40.462528,109.842903 
	C39.801395,109.852715 39.140263,109.862518 38.270203,109.658020 
z"/>
<path fill="#62C694" opacity="1.000000" stroke="none" 
	d="
M27.231852,114.160751 
	C27.485716,113.107231 27.974997,112.218925 28.735714,111.169121 
	C28.493856,112.113739 27.980564,113.219856 27.231852,114.160751 
z"/>
<path fill="#6EC79B" opacity="1.000000" stroke="none" 
	d="
M34.002983,118.004242 
	C34.006001,118.008476 33.820763,118.288742 33.820763,118.288742 
	C33.820763,118.288742 33.834888,118.080727 33.913193,118.037384 
	C33.991497,117.994034 33.999969,118.000015 34.002983,118.004242 
z"/>
<path fill="#204663" opacity="1.000000" stroke="none" 
	d="
M161.080444,44.581036 
	C163.424377,44.529774 165.768326,44.478512 168.543182,44.526062 
	C168.960464,44.940792 168.962311,45.256618 168.543503,45.800117 
	C166.084930,46.032570 164.062500,46.037258 162.040054,46.041946 
	C161.857300,46.035236 161.674561,46.028522 161.241043,45.773930 
	C161.045090,45.213406 161.075134,44.898403 161.080444,44.581036 
z"/>
<path fill="#2B5678" opacity="1.000000" stroke="none" 
	d="
M160.642975,44.445072 
	C161.075134,44.898403 161.045090,45.213406 160.966980,45.762619 
	C158.606079,45.997608 156.268478,45.996029 153.494751,45.996693 
	C153.033493,45.681347 152.996063,45.365208 152.932281,44.812416 
	C155.347305,44.485909 157.776398,44.397511 160.642975,44.445072 
z"/>
<path fill="#2B5678" opacity="1.000000" stroke="none" 
	d="
M137.364349,46.273949 
	C141.370850,46.032211 145.706650,46.027508 150.502350,46.031006 
	C146.539383,46.196472 142.116531,46.353729 137.364349,46.273949 
z"/>
<path fill="#2B5678" opacity="1.000000" stroke="none" 
	d="
M177.331207,46.270645 
	C179.381729,46.036903 181.736923,46.027779 184.532486,46.020569 
	C182.527191,46.180080 180.081543,46.337673 177.331207,46.270645 
z"/>
<path fill="#2B5678" opacity="1.000000" stroke="none" 
	d="
M162.330582,46.265778 
	C164.062500,46.037258 166.084930,46.032570 168.540192,46.037140 
	C166.855713,46.194134 164.738403,46.341869 162.330582,46.265778 
z"/>
<path fill="#7DC2FD" opacity="1.000000" stroke="none" 
	d="
M104.540909,87.136429 
	C107.368896,87.121910 109.737122,87.198143 112.703430,87.649475 
	C114.616806,88.317108 115.932076,88.609650 117.438873,89.272064 
	C117.753601,106.761299 117.876816,123.880646 117.922791,141.392914 
	C117.761345,142.847610 117.677139,143.909393 117.261963,145.078735 
	C116.273071,146.092911 115.615135,146.999542 114.617523,147.932907 
	C114.057899,147.902893 113.837952,147.846130 113.648636,147.618820 
	C113.630470,147.568619 113.581673,147.688965 113.113663,147.909454 
	C109.468781,147.983154 106.243134,147.956696 102.943497,147.660370 
	C101.910233,147.581345 100.950951,147.772171 99.536690,148.014786 
	C95.724411,148.033859 92.367104,148.001160 88.903763,147.853638 
	C88.481682,147.587936 88.213181,147.656906 87.616669,147.984848 
	C86.495277,147.937164 85.749420,147.850357 85.005127,147.311310 
	C85.005386,139.932434 85.082069,133.004272 84.946709,126.080261 
	C84.913795,124.396759 84.183350,122.726906 83.635666,120.599411 
	C83.536858,111.086433 83.576019,102.024826 83.861267,92.823181 
	C84.187347,91.126892 84.267334,89.570648 84.361191,87.809334 
	C84.375061,87.604271 84.352997,87.193787 84.368637,87.161774 
	C84.384277,87.129768 84.455093,87.121880 84.576385,87.200500 
	C84.697670,87.279114 84.942924,87.126068 85.348267,87.178955 
	C86.838234,87.160194 87.922859,87.088547 89.007492,87.016899 
	C94.032043,87.086998 99.056595,87.157089 104.540909,87.136429 
z"/>
<path fill="#295375" opacity="1.000000" stroke="none" 
	d="
M84.942924,87.126068 
	C84.942924,87.126068 84.697670,87.279114 84.387909,87.066696 
	C83.773483,86.836716 83.468819,86.819153 83.164154,86.801590 
	C83.560432,86.932320 83.956718,87.063049 84.352997,87.193787 
	C84.352997,87.193787 84.375061,87.604271 84.133408,87.946930 
	C83.641113,88.538956 83.390472,88.788338 82.872856,89.323761 
	C82.388199,91.751907 82.170517,93.893990 81.672256,95.895241 
	C80.601036,95.509926 79.810410,95.265450 79.019775,95.020966 
	C79.012749,92.643951 79.005714,90.266937 78.999664,87.444717 
	C84.610680,81.099533 85.147575,81.008766 88.543823,85.668854 
	C87.155624,86.374794 86.049271,86.750427 84.942924,87.126068 
z"/>
<path fill="#18496D" opacity="1.000000" stroke="none" 
	d="
M85.348267,87.178955 
	C86.049271,86.750427 87.155624,86.374794 88.629608,85.995102 
	C88.999298,86.162018 89.001335,86.332993 89.005432,86.760422 
	C87.922859,87.088547 86.838234,87.160194 85.348267,87.178955 
z"/>
<path fill="#315D80" opacity="1.000000" stroke="none" 
	d="
M79.017334,95.487427 
	C79.810410,95.265450 80.601036,95.509926 81.681633,96.359833 
	C81.966187,104.632248 81.960777,112.299217 81.955368,119.966194 
	C81.222061,119.973236 80.488747,119.980270 79.389450,119.981506 
	C79.020615,111.968437 79.017754,103.961166 79.017334,95.487427 
z"/>
<path fill="#315D80" opacity="1.000000" stroke="none" 
	d="
M77.528290,104.862442 
	C77.440857,104.963142 77.327118,104.500687 77.390953,104.271393 
	C77.669800,104.247704 77.723442,104.487587 77.528290,104.862442 
z"/>
<path fill="#285478" opacity="1.000000" stroke="none" 
	d="
M118.000031,141.000000 
	C117.876816,123.880646 117.753601,106.761299 117.408646,89.040184 
	C117.023392,88.172371 116.884247,87.894142 116.769455,87.603729 
	C116.811264,87.339348 116.853073,87.074959 117.302750,86.398956 
	C118.805214,85.668816 119.899818,85.350296 120.994415,85.031784 
	C121.331070,103.038979 121.667732,121.046165 122.005898,139.520660 
	C121.216919,141.268036 120.426437,142.548141 119.307831,143.584381 
	C118.653145,142.560349 118.326591,141.780167 118.000031,141.000000 
z"/>
<path fill="#234F70" opacity="1.000000" stroke="none" 
	d="
M120.967422,84.774727 
	C119.899818,85.350296 118.805214,85.668816 117.366241,86.002502 
	C118.058037,85.351135 119.094215,84.684608 120.477638,84.015945 
	C120.863396,84.181770 120.901909,84.349724 120.967422,84.774727 
z"/>
<path fill="#275880" opacity="1.000000" stroke="none" 
	d="
M123.771286,150.586548 
	C123.494728,149.100052 123.293961,147.188049 123.398590,145.132950 
	C123.751678,146.713577 123.799370,148.437332 123.771286,150.586548 
z"/>
<path fill="#275880" opacity="1.000000" stroke="none" 
	d="
M123.325714,154.827255 
	C123.168159,154.421310 123.164162,153.788589 123.394623,153.073624 
	C123.579147,153.527740 123.529205,154.064117 123.325714,154.827255 
z"/>
<path fill="#7CB8EB" opacity="1.000000" stroke="none" 
	d="
M116.396194,87.509781 
	C116.884247,87.894142 117.023392,88.172371 117.217125,88.670303 
	C115.932076,88.609650 114.616806,88.317108 113.140381,87.724808 
	C113.993797,87.421974 115.008362,87.418907 116.396194,87.509781 
z"/>
<path fill="#5FC786" opacity="1.000000" stroke="none" 
	d="
M156.976486,170.946564 
	C158.387543,170.951294 159.798599,170.956024 161.955139,170.952332 
	C163.135742,170.890762 163.570862,170.837616 164.005966,170.784454 
	C164.005966,170.784454 163.999344,170.971848 164.277573,171.254959 
	C166.036880,171.382950 167.517975,171.227829 168.999054,171.072708 
	C168.999054,171.072708 168.959930,170.852448 169.357330,170.831207 
	C171.166382,170.852493 172.578018,170.894989 173.989670,170.937500 
	C177.471329,171.394806 180.952972,171.852097 184.434631,172.309387 
	C184.449097,172.657639 184.463562,173.005905 184.478043,173.354156 
	C182.189514,173.745255 179.901001,174.136368 177.304611,174.760208 
	C170.217163,174.643341 163.434616,174.338104 156.661743,173.887527 
	C155.821350,173.831619 155.032318,173.003647 154.387375,172.048462 
	C155.362335,171.357864 156.169418,171.152222 156.976486,170.946564 
z"/>
<path fill="#80C1F3" opacity="1.000000" stroke="none" 
	d="
M156.640228,170.711578 
	C156.169418,171.152222 155.362335,171.357864 154.259399,171.662033 
	C145.533600,171.665039 137.103653,171.569504 128.316956,171.265686 
	C131.004059,170.704803 134.046509,170.072769 137.092026,170.057602 
	C143.495163,170.025681 149.899887,170.317596 156.640228,170.711578 
z"/>
<path fill="#62C694" opacity="1.000000" stroke="none" 
	d="
M104.922630,182.051331 
	C102.079681,182.543945 99.569962,182.799057 97.060242,183.054169 
	C96.995911,182.564377 96.931580,182.074570 96.867241,181.584763 
	C101.305435,180.395706 105.743629,179.206635 110.181824,178.017563 
	C110.375557,178.668274 110.569298,179.318970 110.763031,179.969666 
	C108.927307,180.584381 107.091583,181.199097 104.922630,182.051331 
z"/>
<path fill="#62C694" opacity="1.000000" stroke="none" 
	d="
M89.419243,177.000214 
	C89.000450,176.250717 89.000595,175.501450 89.000977,174.377609 
	C91.072784,174.321350 93.144356,174.639648 95.608528,174.977142 
	C93.946823,175.664368 91.892502,176.332397 89.419243,177.000214 
z"/>
<path fill="#80C1F3" opacity="1.000000" stroke="none" 
	d="
M119.337189,171.001694 
	C119.562088,170.844864 120.116089,170.740417 120.832672,170.815155 
	C120.552277,171.014267 120.109276,171.034180 119.337189,171.001694 
z"/>
<path fill="#7BC1FD" opacity="1.000000" stroke="none" 
	d="
M185.027847,165.635956 
	C187.379150,165.588882 189.730438,165.541809 192.397034,165.849716 
	C192.141800,166.982315 191.571259,167.759949 191.000717,168.537567 
	C190.530136,168.608475 190.059570,168.679367 188.979797,168.572647 
	C187.256348,167.475342 186.142105,166.555649 185.027847,165.635956 
z"/>
<path fill="#80C1F3" opacity="1.000000" stroke="none" 
	d="
M191.381119,168.576813 
	C191.571259,167.759949 192.141800,166.982315 192.818481,165.981384 
	C194.974945,165.632095 197.025299,165.506149 199.515778,165.425903 
	C200.253845,165.821106 200.551773,166.170593 200.977966,166.711243 
	C197.991333,167.473618 194.876434,168.044846 191.381119,168.576813 
z"/>
<path fill="#80C1F3" opacity="1.000000" stroke="none" 
	d="
M184.656631,165.513123 
	C186.142105,166.555649 187.256348,167.475342 188.622330,168.562256 
	C186.871231,168.845673 184.868408,168.961853 182.432434,169.045746 
	C181.995621,168.103821 181.991959,167.194183 181.982330,165.944702 
	C182.746033,165.533325 183.515717,165.461807 184.656631,165.513123 
z"/>
<path fill="#80C1F3" opacity="1.000000" stroke="none" 
	d="
M174.275055,170.718536 
	C172.578018,170.894989 171.166382,170.852493 169.338943,170.720886 
	C172.343567,170.091324 175.763992,169.550842 179.648193,169.030716 
	C178.261459,169.533905 176.410934,170.016724 174.275055,170.718536 
z"/>
<path fill="#62C794" opacity="1.000000" stroke="none" 
	d="
M168.584106,171.017929 
	C167.517975,171.227829 166.036880,171.382950 164.277527,171.348724 
	C165.389206,171.093964 166.779175,171.028549 168.584106,171.017929 
z"/>
<path fill="#80C1F3" opacity="1.000000" stroke="none" 
	d="
M163.825806,170.646637 
	C163.570862,170.837616 163.135742,170.890762 162.374985,170.893585 
	C162.581436,170.731766 163.113525,170.620300 163.825806,170.646637 
z"/>
<path fill="#275880" opacity="1.000000" stroke="none" 
	d="
M85.003563,147.763550 
	C85.749420,147.850357 86.495277,147.937164 87.870018,148.040436 
	C88.669197,148.027435 88.839500,147.997955 89.009804,147.968460 
	C92.367104,148.001160 95.724411,148.033859 99.912102,148.086823 
	C101.500824,148.048141 102.259148,147.989197 103.017479,147.930237 
	C106.243134,147.956696 109.468781,147.983154 113.132195,147.885498 
	C113.569954,147.761398 113.617996,147.789368 113.617996,147.789368 
	C113.837952,147.846130 114.057899,147.902893 114.894341,147.995895 
	C116.249100,147.864868 116.987366,147.697617 117.725632,147.530365 
	C119.248238,150.310104 118.106232,151.822067 115.258301,151.676300 
	C106.737083,151.240128 98.228561,150.555817 89.715179,149.967026 
	C88.394325,149.875656 86.894218,150.133972 85.802780,149.584030 
	C84.658813,149.007584 83.907265,147.652390 83.104614,146.274994 
	C83.225029,145.912415 83.474159,145.986984 83.610535,146.266678 
	C84.165802,146.952087 84.584686,147.357819 85.003563,147.763550 
z"/>
<path fill="#1C4B6B" opacity="1.000000" stroke="none" 
	d="
M83.474159,145.986984 
	C83.474159,145.986984 83.225029,145.912415 83.096085,145.895111 
	C82.644539,140.685730 82.256058,135.496567 82.023994,130.300430 
	C81.884460,127.176155 81.988708,124.041008 81.969391,120.438469 
	C81.960777,112.299217 81.966187,104.632248 81.962219,96.500671 
	C82.170517,93.893990 82.388199,91.751907 82.934235,89.716217 
	C83.380119,90.869484 83.497650,91.916351 83.615181,92.963211 
	C83.576019,102.024826 83.536858,111.086433 83.519379,121.021942 
	C83.518768,129.926224 83.496468,137.956604 83.474159,145.986984 
z"/>
<path fill="#77B6E8" opacity="1.000000" stroke="none" 
	d="
M96.988518,155.333771 
	C98.609528,154.211823 100.132149,153.116852 101.756676,152.935745 
	C102.303406,152.874786 103.753685,155.220154 103.611115,156.311600 
	C103.474434,157.357971 101.406158,159.171036 100.889153,158.956284 
	C99.381218,158.329910 98.224419,156.858215 96.988518,155.333771 
z"/>
<path fill="#7CB8EB" opacity="1.000000" stroke="none" 
	d="
M117.723892,147.395660 
	C116.987366,147.697617 116.249100,147.864868 115.234024,147.969147 
	C115.615135,146.999542 116.273071,146.092911 117.336914,145.418915 
	C117.786568,146.113815 117.830315,146.576096 117.874069,147.038391 
	C117.874062,147.038391 117.722160,147.260941 117.723892,147.395660 
z"/>
<path fill="#275880" opacity="1.000000" stroke="none" 
	d="
M118.114349,146.802307 
	C117.830315,146.576096 117.786568,146.113815 117.667877,145.311356 
	C117.677139,143.909393 117.761345,142.847610 117.922798,141.392914 
	C118.326591,141.780167 118.653145,142.560349 118.992844,143.669647 
	C118.788872,144.854584 118.571754,145.710403 118.114349,146.802307 
z"/>
<path fill="#8ACCFE" opacity="1.000000" stroke="none" 
	d="
M83.610535,146.266678 
	C83.496468,137.956604 83.518768,129.926224 83.657349,121.473305 
	C84.183350,122.726906 84.913795,124.396759 84.946709,126.080261 
	C85.082069,133.004272 85.005386,139.932434 85.005127,147.311310 
	C84.584686,147.357819 84.165802,146.952087 83.610535,146.266678 
z"/>
<path fill="#8ACCFE" opacity="1.000000" stroke="none" 
	d="
M83.861267,92.823181 
	C83.497650,91.916351 83.380119,90.869484 83.201202,89.430168 
	C83.390472,88.788338 83.641113,88.538956 84.119537,88.151993 
	C84.267334,89.570648 84.187347,91.126892 83.861267,92.823181 
z"/>
<path fill="#7CB8EB" opacity="1.000000" stroke="none" 
	d="
M102.943497,147.660370 
	C102.259148,147.989197 101.500824,148.048141 100.367081,148.035049 
	C100.950951,147.772171 101.910233,147.581345 102.943497,147.660370 
z"/>
<path fill="#7CB8EB" opacity="1.000000" stroke="none" 
	d="
M113.648636,147.618820 
	C113.617996,147.789368 113.569954,147.761398 113.551422,147.785355 
	C113.581673,147.688965 113.630470,147.568619 113.648636,147.618820 
z"/>
<path fill="#7CB8EB" opacity="1.000000" stroke="none" 
	d="
M88.903763,147.853638 
	C88.839500,147.997955 88.669197,148.027435 88.245552,148.001312 
	C88.213181,147.656906 88.481682,147.587936 88.903763,147.853638 
z"/>
<path fill="#234F70" opacity="1.000000" stroke="none" 
	d="
M84.368637,87.161774 
	C83.956718,87.063049 83.560432,86.932320 83.164154,86.801590 
	C83.468819,86.819153 83.773483,86.836716 84.266617,86.988083 
	C84.455093,87.121880 84.384277,87.129768 84.368637,87.161774 
z"/>
</svg>